<?xml version="1.0" encoding="UTF-8" standalone="no"?>
<!DOCTYPE svg PUBLIC "-//W3C//DTD SVG 1.1//EN" "http://www.w3.org/Graphics/SVG/1.1/DTD/svg11.dtd">
<svg width="100%" height="100%" viewBox="0 0 2048 1024" version="1.1" xmlns="http://www.w3.org/2000/svg" xmlns:xlink="http://www.w3.org/1999/xlink" xml:space="preserve" xmlns:serif="http://www.serif.com/" style="fill-rule:evenodd;clip-rule:evenodd;stroke-linejoin:round;stroke-miterlimit:2;">
    <g transform="matrix(2.20975,0,0,2.20975,-200.775,-302.714)">
        <path d="M556.756,318.557L609.682,349.113L609.682,352L607.182,353.443L554.256,322.887L501.331,353.443L498.831,352L498.831,349.113L551.756,318.557L551.756,257.443L554.256,256L556.756,257.443L556.756,318.557Z" style="stroke:black;stroke-width:0.45px;"/>
    </g>
    <g transform="matrix(-2.20975,2.70615e-16,-2.70615e-16,-2.20975,2493.72,1111.53)">
        <path d="M556.756,318.557L609.682,349.113L609.682,352L607.182,353.443L554.256,322.887L501.331,353.443L498.831,352L498.831,349.113L551.756,318.557L551.756,257.443L554.256,256L556.756,257.443L556.756,318.557Z" style="stroke:black;stroke-width:0.45px;"/>
    </g>
    <g transform="matrix(-2.20975,2.70615e-16,-2.70615e-16,-2.20975,2003.82,1111.53)">
        <path d="M556.756,318.557L609.682,349.113L609.682,352L607.182,353.443L554.256,322.887L501.331,353.443L498.831,352L498.831,349.113L551.756,318.557L551.756,257.443L554.256,256L556.756,257.443L556.756,318.557Z" style="stroke:black;stroke-width:0.45px;"/>
    </g>
    <g transform="matrix(0.559366,0,0,0.559366,350.95,101.806)">
        <g transform="matrix(100,0,0,100,647.437,1056.22)">
            <path d="M0.337,-0.699C0.462,-0.699 0.559,-0.669 0.626,-0.608C0.693,-0.547 0.727,-0.462 0.727,-0.353C0.727,-0.244 0.694,-0.158 0.629,-0.095C0.564,-0.032 0.464,-0 0.329,-0L0.097,-0L0.097,-0.699L0.337,-0.699ZM0.608,-0.35C0.608,-0.51 0.516,-0.59 0.333,-0.59L0.215,-0.59L0.215,-0.111L0.346,-0.111C0.431,-0.111 0.496,-0.131 0.541,-0.172C0.586,-0.212 0.608,-0.271 0.608,-0.35Z" style="fill-rule:nonzero;"/>
        </g>
        <g transform="matrix(100,0,0,100,835.637,1056.22)">
            <path d="M0.588,-0.699L0.588,-0.588L0.215,-0.588L0.215,-0.403L0.55,-0.403L0.55,-0.298L0.215,-0.298L0.215,-0.111L0.6,-0.111L0.6,-0L0.097,-0L0.097,-0.699L0.588,-0.699Z" style="fill-rule:nonzero;"/>
        </g>
        <g transform="matrix(100,0,0,100,1011.04,1056.22)">
            <path d="M0.416,-0L0.284,-0L0.003,-0.699L0.135,-0.699L0.35,-0.177L0.565,-0.699L0.697,-0.699L0.416,-0Z" style="fill-rule:nonzero;"/>
        </g>
        <g transform="matrix(100,0,0,100,1191.04,1056.22)">
            <rect x="0.097" y="-0.699" width="0.118" height="0.699" style="fill-rule:nonzero;"/>
        </g>
        <g transform="matrix(100,0,0,100,1332.24,1056.22)">
            <path d="M0.416,-0.107C0.457,-0.107 0.492,-0.114 0.521,-0.128C0.55,-0.141 0.581,-0.163 0.613,-0.193L0.689,-0.115C0.615,-0.033 0.525,0.008 0.42,0.008C0.314,0.008 0.226,-0.026 0.157,-0.094C0.087,-0.162 0.052,-0.248 0.052,-0.352C0.052,-0.456 0.088,-0.543 0.159,-0.612C0.23,-0.681 0.319,-0.716 0.428,-0.716C0.536,-0.716 0.626,-0.676 0.699,-0.596L0.624,-0.514C0.591,-0.546 0.559,-0.568 0.53,-0.581C0.5,-0.594 0.465,-0.6 0.425,-0.6C0.354,-0.6 0.295,-0.577 0.247,-0.532C0.199,-0.486 0.175,-0.428 0.175,-0.357C0.175,-0.286 0.199,-0.226 0.247,-0.179C0.294,-0.131 0.351,-0.107 0.416,-0.107Z" style="fill-rule:nonzero;"/>
        </g>
        <g transform="matrix(100,0,0,100,1515.84,1056.22)">
            <path d="M0.588,-0.699L0.588,-0.588L0.215,-0.588L0.215,-0.403L0.55,-0.403L0.55,-0.298L0.215,-0.298L0.215,-0.111L0.6,-0.111L0.6,-0L0.097,-0L0.097,-0.699L0.588,-0.699Z" style="fill-rule:nonzero;"/>
        </g>
        <g transform="matrix(100,0,0,100,1691.24,1056.22)">
            <path d="M0.308,-0.607C0.274,-0.607 0.246,-0.6 0.224,-0.586C0.202,-0.572 0.191,-0.551 0.191,-0.523C0.191,-0.494 0.202,-0.472 0.224,-0.458C0.246,-0.443 0.293,-0.426 0.365,-0.409C0.436,-0.392 0.49,-0.367 0.527,-0.336C0.563,-0.305 0.581,-0.259 0.581,-0.198C0.581,-0.136 0.558,-0.087 0.512,-0.049C0.466,-0.011 0.406,0.008 0.331,0.008C0.222,0.008 0.125,-0.03 0.04,-0.105L0.114,-0.194C0.185,-0.133 0.258,-0.102 0.334,-0.102C0.372,-0.102 0.402,-0.11 0.425,-0.127C0.447,-0.143 0.458,-0.165 0.458,-0.192C0.458,-0.219 0.448,-0.24 0.427,-0.255C0.405,-0.27 0.369,-0.283 0.318,-0.296C0.267,-0.308 0.228,-0.319 0.201,-0.33C0.174,-0.34 0.151,-0.353 0.13,-0.37C0.089,-0.401 0.068,-0.449 0.068,-0.514C0.068,-0.579 0.092,-0.628 0.139,-0.664C0.186,-0.699 0.244,-0.716 0.313,-0.716C0.358,-0.716 0.402,-0.709 0.446,-0.694C0.49,-0.679 0.528,-0.659 0.56,-0.632L0.497,-0.543C0.476,-0.562 0.448,-0.577 0.413,-0.589C0.378,-0.601 0.343,-0.607 0.308,-0.607Z" style="fill-rule:nonzero;"/>
        </g>
    </g>
    <g transform="matrix(0.559366,0,0,0.559366,322.656,26.6353)">
        <text x="647.437px" y="1056.22px" style="font-family:'Montserrat-Regular', 'Montserrat';font-size:100px;">I<tspan x="788.637px 982.237px 1152.64px 1293.84px 1487.44px 1628.64px 1799.04px " y="1056.22px 1056.22px 1056.22px 1056.22px 1056.22px 1056.22px 1056.22px ">NFINITE</tspan></text>
    </g>
</svg>
