<?xml version="1.0" encoding="UTF-8" standalone="no"?>
<!DOCTYPE svg PUBLIC "-//W3C//DTD SVG 1.1//EN" "http://www.w3.org/Graphics/SVG/1.1/DTD/svg11.dtd">
<!-- Created with Vectornator (http://vectornator.io/) -->
<svg height="100%" stroke-miterlimit="10"
    style="fill-rule:nonzero;clip-rule:evenodd;stroke-linecap:round;stroke-linejoin:round;" version="1.1"
    viewBox="0 0 820 200" width="100%" xml:space="preserve" xmlns="http://www.w3.org/2000/svg"
    xmlns:xlink="http://www.w3.org/1999/xlink">
    <defs>
        <clipPath id="TextBounds">
            <rect height="197.737" width="820.776" x="-0.388245" y="1.13142" />
        </clipPath>
        <clipPath id="TextBounds_2">
            <rect height="197.737" width="820.776" x="-0.388245" y="1.13142" />
        </clipPath>
        <g id="Fill">
            <path clip-path="url(#TextBounds_2)"
                d="M56.9757 79.0498L56.9757 155.271L34.2945 155.271L34.2945 79.0498L56.9757 79.0498ZM50.6496 45.4137C55.1756 45.4137 57.4386 47.7282 57.4386 52.357L57.4386 60.5345C57.4386 65.1634 55.1756 67.4778 50.6496 67.4778L40.7748 67.4778C36.2489 67.4778 33.9859 65.1634 33.9859 60.5345L33.9859 52.357C33.9859 47.7282 36.2489 45.4137 40.7748 45.4137L50.6496 45.4137Z"
                id="Fill-" />
            <path clip-path="url(#TextBounds_2)"
                d="M129.339 77.044C143.74 77.044 150.941 84.0901 150.941 98.1822L150.941 155.271L128.105 155.271L128.105 105.28C128.105 101.885 127.488 99.5452 126.254 98.2594C125.019 96.9736 122.911 96.3307 119.928 96.3307C116.636 96.3307 113.242 96.9736 109.744 98.2594C106.247 99.5452 101.927 101.525 96.7835 104.2L95.7034 91.3933C101.155 86.7645 106.735 83.2157 112.444 80.747C118.153 78.2783 123.785 77.044 129.339 77.044ZM94.6234 79.0498L97.2464 94.1706L99.0979 96.1764L99.0979 155.271L76.2624 155.271L76.2624 79.0498L94.6234 79.0498Z"
                id="Fill-_2" />
            <path clip-path="url(#TextBounds_2)"
                d="M200.778 44.0251C203.349 44.0251 206.641 44.1537 210.652 44.4108C214.664 44.668 218.213 45.1052 221.299 45.7223L221.299 60.3803L208.955 60.3803C205.046 60.3803 202.346 61.2032 200.855 62.849C199.363 64.4948 198.617 67.3749 198.617 71.4894L198.617 155.271L175.628 155.271L175.628 68.5578C175.628 63.6204 176.451 59.3002 178.096 55.5971C179.742 51.8941 182.391 49.0397 186.042 47.0338C189.694 45.028 194.606 44.0251 200.778 44.0251ZM230.711 79.0498L230.711 94.0163L162.513 94.0163L162.513 79.8213L176.091 79.0498L230.711 79.0498ZM252.62 79.0498L252.62 155.271L229.939 155.271L229.939 79.0498L252.62 79.0498ZM246.14 44.6423C250.666 44.6423 252.929 46.9053 252.929 51.4312L252.929 59.7631C252.929 64.3919 250.666 66.7063 246.14 66.7063L236.419 66.7063C231.893 66.7063 229.63 64.3919 229.63 59.7631L229.63 51.4312C229.63 46.9053 231.893 44.6423 236.419 44.6423L246.14 44.6423Z"
                id="Fill-_3" />
            <path clip-path="url(#TextBounds_2)"
                d="M324.984 77.044C339.385 77.044 346.585 84.0901 346.585 98.1822L346.585 155.271L323.75 155.271L323.75 105.28C323.75 101.885 323.133 99.5452 321.898 98.2594C320.664 96.9736 318.555 96.3307 315.572 96.3307C312.281 96.3307 308.886 96.9736 305.389 98.2594C301.891 99.5452 297.571 101.525 292.428 104.2L291.348 91.3933C296.8 86.7645 302.38 83.2157 308.089 80.747C313.798 78.2783 319.43 77.044 324.984 77.044ZM290.268 79.0498L292.891 94.1706L294.742 96.1764L294.742 155.271L271.907 155.271L271.907 79.0498L290.268 79.0498Z"
                id="Fill-_4" />
            <path clip-path="url(#TextBounds_2)"
                d="M387.936 79.0498L387.936 155.271L365.255 155.271L365.255 79.0498L387.936 79.0498ZM381.61 45.4137C386.136 45.4137 388.399 47.7282 388.399 52.357L388.399 60.5345C388.399 65.1634 386.136 67.4778 381.61 67.4778L371.735 67.4778C367.209 67.4778 364.946 65.1634 364.946 60.5345L364.946 52.357C364.946 47.7282 367.209 45.4137 371.735 45.4137L381.61 45.4137Z"
                id="Fill-_5" />
            <path clip-path="url(#TextBounds_2)"
                d="M503.811 77.044C510.702 77.044 515.948 78.8441 519.549 82.4443C523.149 86.0445 524.949 91.2905 524.949 98.1822L524.949 155.271L502.268 155.271L502.268 105.28C502.268 102.091 501.651 99.8023 500.416 98.4137C499.182 97.025 497.022 96.3307 493.936 96.3307C492.084 96.3307 490.336 96.5879 488.69 97.1022C487.044 97.6165 485.141 98.4394 482.981 99.5709C480.821 100.702 478.198 102.245 475.112 104.2L473.878 91.5476C478.815 86.7131 483.675 83.0872 488.458 80.6699C493.242 78.2526 498.359 77.044 503.811 77.044ZM425.429 79.0498L427.744 94.1706L430.058 96.1764L430.058 155.271L407.223 155.271L407.223 79.0498L425.429 79.0498ZM456.288 77.044C463.077 77.044 468.246 78.8184 471.795 82.3671C475.343 85.9159 477.118 91.1876 477.118 98.1822L477.118 155.271L455.208 155.271L455.208 105.28C455.208 101.988 454.514 99.6738 453.125 98.3365C451.736 96.9993 449.602 96.3307 446.722 96.3307C444.973 96.3307 443.25 96.5622 441.553 97.025C439.856 97.4879 437.901 98.2851 435.69 99.4166C433.478 100.548 430.778 102.142 427.589 104.2L426.201 91.5476C431.241 86.7131 436.127 83.0872 440.859 80.6699C445.59 78.2526 450.734 77.044 456.288 77.044Z"
                id="Fill-_6" />
            <path clip-path="url(#TextBounds_2)"
                d="M579.26 77.044C592.118 77.044 601.35 79.2298 606.956 83.6015C612.562 87.9731 615.365 94.4792 615.365 103.12C615.468 110.114 613.719 115.335 610.119 118.78C606.519 122.226 600.296 123.949 591.45 123.949L548.864 123.949L548.864 111.143L585.124 111.143C588.621 111.143 590.858 110.397 591.835 108.906C592.812 107.414 593.301 105.331 593.301 102.657C593.198 99.0566 592.144 96.5622 590.138 95.1735C588.132 93.7849 584.763 93.0905 580.032 93.0905C575.814 93.0905 572.523 93.6563 570.157 94.7878C567.791 95.9193 566.145 98.0794 565.22 101.268C564.294 104.457 563.831 109.086 563.831 115.155C563.831 121.532 564.397 126.444 565.528 129.89C566.66 133.336 568.588 135.727 571.314 137.064C574.04 138.402 577.82 139.07 582.655 139.07C586.152 139.07 590.498 138.942 595.693 138.684C600.887 138.427 606.107 137.99 611.353 137.373L613.514 151.414C610.531 152.854 607.136 153.985 603.33 154.808C599.524 155.631 595.615 156.222 591.604 156.582C587.592 156.942 583.735 157.122 580.032 157.122C570.363 157.122 562.571 155.708 556.656 152.879C550.742 150.051 546.473 145.705 543.85 139.842C541.227 133.978 539.915 126.469 539.915 117.315C539.915 107.337 541.253 99.4166 543.927 93.5534C546.601 87.6903 550.819 83.4729 556.579 80.9013C562.339 78.3298 569.9 77.044 579.26 77.044Z"
                id="Fill-_7" />
            <path clip-path="url(#TextBounds_2)"
                d="M659.185 77.044C662.888 77.044 666.899 77.1726 671.219 77.4297C675.54 77.6869 679.757 78.0212 683.872 78.4326C687.986 78.8441 691.638 79.3584 694.826 79.9756L693.283 94.1706C688.346 94.0677 683.383 93.9906 678.394 93.9392C673.405 93.8877 668.545 93.862 663.813 93.862C659.802 93.7592 656.716 93.8106 654.556 94.0163C652.396 94.222 650.878 94.7106 650.004 95.4821C649.13 96.2536 648.693 97.6165 648.693 99.5709C648.693 101.834 649.464 103.351 651.007 104.123C652.55 104.894 655.121 105.743 658.722 106.668L678.626 111.452C685.003 113.097 689.735 115.54 692.821 118.78C695.906 122.021 697.449 126.881 697.449 133.361C697.449 139.739 696.267 144.625 693.901 148.019C691.535 151.414 687.78 153.754 682.637 155.04C677.494 156.325 670.859 156.968 662.733 156.968C659.545 156.968 654.813 156.814 648.538 156.505C642.264 156.197 635.372 155.425 627.863 154.191L629.406 139.996C631.257 140.099 633.623 140.176 636.503 140.227C639.384 140.279 642.521 140.304 645.915 140.304C649.31 140.304 652.704 140.304 656.099 140.304C661.345 140.304 665.356 140.176 668.134 139.919C670.911 139.662 672.814 139.07 673.842 138.144C674.871 137.219 675.385 135.83 675.385 133.978C675.385 131.715 674.511 130.173 672.762 129.35C671.014 128.527 668.236 127.652 664.431 126.727L645.144 121.943C640.309 120.606 636.555 118.909 633.88 116.852C631.206 114.795 629.329 112.274 628.249 109.291C627.169 106.308 626.629 102.76 626.629 98.6451C626.629 93.3991 627.683 89.2075 629.792 86.0702C631.9 82.9329 635.346 80.6442 640.129 79.2041C644.912 77.764 651.264 77.044 659.185 77.044Z"
                id="Fill-_8" />
            <path clip-path="url(#TextBounds_2)"
                d="M765.184 77.044C779.585 77.044 786.786 84.0901 786.786 98.1822L786.786 155.271L763.796 155.271L763.796 105.28C763.796 101.885 763.204 99.5452 762.021 98.2594C760.838 96.9736 758.756 96.3307 755.773 96.3307C752.481 96.3307 749.086 96.9479 745.589 98.1822C742.092 99.4166 737.772 101.422 732.628 104.2L730.623 92.3191C736.28 87.3817 742.04 83.6015 747.904 80.9785C753.767 78.3555 759.527 77.044 765.184 77.044ZM734.943 47.2653L735.097 73.6495C735.097 77.6612 734.866 81.4671 734.403 85.0673C733.94 88.6675 733.4 91.7019 732.783 94.1706L734.943 96.1764L734.943 155.271L712.107 155.271L712.107 47.2653L734.943 47.2653Z"
                id="Fill-_9" />
        </g>
    </defs>
    <g id="Logo" visibility="hidden">
        <g fill="#000000" opacity="0" stroke="none">
            <path clip-path="url(#TextBounds)"
                d="M56.9757 79.0498L56.9757 155.271L34.2945 155.271L34.2945 79.0498L56.9757 79.0498ZM50.6496 45.4137C55.1756 45.4137 57.4386 47.7282 57.4386 52.357L57.4386 60.5345C57.4386 65.1634 55.1756 67.4778 50.6496 67.4778L40.7748 67.4778C36.2489 67.4778 33.9859 65.1634 33.9859 60.5345L33.9859 52.357C33.9859 47.7282 36.2489 45.4137 40.7748 45.4137L50.6496 45.4137Z" />
            <path clip-path="url(#TextBounds)"
                d="M129.339 77.044C143.74 77.044 150.941 84.0901 150.941 98.1822L150.941 155.271L128.105 155.271L128.105 105.28C128.105 101.885 127.488 99.5452 126.254 98.2594C125.019 96.9736 122.911 96.3307 119.928 96.3307C116.636 96.3307 113.242 96.9736 109.744 98.2594C106.247 99.5452 101.927 101.525 96.7835 104.2L95.7034 91.3933C101.155 86.7645 106.735 83.2157 112.444 80.747C118.153 78.2783 123.785 77.044 129.339 77.044ZM94.6234 79.0498L97.2464 94.1706L99.0979 96.1764L99.0979 155.271L76.2624 155.271L76.2624 79.0498L94.6234 79.0498Z" />
            <path clip-path="url(#TextBounds)"
                d="M200.778 44.0251C203.349 44.0251 206.641 44.1537 210.652 44.4108C214.664 44.668 218.213 45.1052 221.299 45.7223L221.299 60.3803L208.955 60.3803C205.046 60.3803 202.346 61.2032 200.855 62.849C199.363 64.4948 198.617 67.3749 198.617 71.4894L198.617 155.271L175.628 155.271L175.628 68.5578C175.628 63.6204 176.451 59.3002 178.096 55.5971C179.742 51.8941 182.391 49.0397 186.042 47.0338C189.694 45.028 194.606 44.0251 200.778 44.0251ZM230.711 79.0498L230.711 94.0163L162.513 94.0163L162.513 79.8213L176.091 79.0498L230.711 79.0498ZM252.62 79.0498L252.62 155.271L229.939 155.271L229.939 79.0498L252.62 79.0498ZM246.14 44.6423C250.666 44.6423 252.929 46.9053 252.929 51.4312L252.929 59.7631C252.929 64.3919 250.666 66.7063 246.14 66.7063L236.419 66.7063C231.893 66.7063 229.63 64.3919 229.63 59.7631L229.63 51.4312C229.63 46.9053 231.893 44.6423 236.419 44.6423L246.14 44.6423Z" />
            <path clip-path="url(#TextBounds)"
                d="M324.984 77.044C339.385 77.044 346.585 84.0901 346.585 98.1822L346.585 155.271L323.75 155.271L323.75 105.28C323.75 101.885 323.133 99.5452 321.898 98.2594C320.664 96.9736 318.555 96.3307 315.572 96.3307C312.281 96.3307 308.886 96.9736 305.389 98.2594C301.891 99.5452 297.571 101.525 292.428 104.2L291.348 91.3933C296.8 86.7645 302.38 83.2157 308.089 80.747C313.798 78.2783 319.43 77.044 324.984 77.044ZM290.268 79.0498L292.891 94.1706L294.742 96.1764L294.742 155.271L271.907 155.271L271.907 79.0498L290.268 79.0498Z" />
            <path clip-path="url(#TextBounds)"
                d="M387.936 79.0498L387.936 155.271L365.255 155.271L365.255 79.0498L387.936 79.0498ZM381.61 45.4137C386.136 45.4137 388.399 47.7282 388.399 52.357L388.399 60.5345C388.399 65.1634 386.136 67.4778 381.61 67.4778L371.735 67.4778C367.209 67.4778 364.946 65.1634 364.946 60.5345L364.946 52.357C364.946 47.7282 367.209 45.4137 371.735 45.4137L381.61 45.4137Z" />
            <path clip-path="url(#TextBounds)"
                d="M503.811 77.044C510.702 77.044 515.948 78.8441 519.549 82.4443C523.149 86.0445 524.949 91.2905 524.949 98.1822L524.949 155.271L502.268 155.271L502.268 105.28C502.268 102.091 501.651 99.8023 500.416 98.4137C499.182 97.025 497.022 96.3307 493.936 96.3307C492.084 96.3307 490.336 96.5879 488.69 97.1022C487.044 97.6165 485.141 98.4394 482.981 99.5709C480.821 100.702 478.198 102.245 475.112 104.2L473.878 91.5476C478.815 86.7131 483.675 83.0872 488.458 80.6699C493.242 78.2526 498.359 77.044 503.811 77.044ZM425.429 79.0498L427.744 94.1706L430.058 96.1764L430.058 155.271L407.223 155.271L407.223 79.0498L425.429 79.0498ZM456.288 77.044C463.077 77.044 468.246 78.8184 471.795 82.3671C475.343 85.9159 477.118 91.1876 477.118 98.1822L477.118 155.271L455.208 155.271L455.208 105.28C455.208 101.988 454.514 99.6738 453.125 98.3365C451.736 96.9993 449.602 96.3307 446.722 96.3307C444.973 96.3307 443.25 96.5622 441.553 97.025C439.856 97.4879 437.901 98.2851 435.69 99.4166C433.478 100.548 430.778 102.142 427.589 104.2L426.201 91.5476C431.241 86.7131 436.127 83.0872 440.859 80.6699C445.59 78.2526 450.734 77.044 456.288 77.044Z" />
            <path clip-path="url(#TextBounds)"
                d="M579.26 77.044C592.118 77.044 601.35 79.2298 606.956 83.6015C612.562 87.9731 615.365 94.4792 615.365 103.12C615.468 110.114 613.719 115.335 610.119 118.78C606.519 122.226 600.296 123.949 591.45 123.949L548.864 123.949L548.864 111.143L585.124 111.143C588.621 111.143 590.858 110.397 591.835 108.906C592.812 107.414 593.301 105.331 593.301 102.657C593.198 99.0566 592.144 96.5622 590.138 95.1735C588.132 93.7849 584.763 93.0905 580.032 93.0905C575.814 93.0905 572.523 93.6563 570.157 94.7878C567.791 95.9193 566.145 98.0794 565.22 101.268C564.294 104.457 563.831 109.086 563.831 115.155C563.831 121.532 564.397 126.444 565.528 129.89C566.66 133.336 568.588 135.727 571.314 137.064C574.04 138.402 577.82 139.07 582.655 139.07C586.152 139.07 590.498 138.942 595.693 138.684C600.887 138.427 606.107 137.99 611.353 137.373L613.514 151.414C610.531 152.854 607.136 153.985 603.33 154.808C599.524 155.631 595.615 156.222 591.604 156.582C587.592 156.942 583.735 157.122 580.032 157.122C570.363 157.122 562.571 155.708 556.656 152.879C550.742 150.051 546.473 145.705 543.85 139.842C541.227 133.978 539.915 126.469 539.915 117.315C539.915 107.337 541.253 99.4166 543.927 93.5534C546.601 87.6903 550.819 83.4729 556.579 80.9013C562.339 78.3298 569.9 77.044 579.26 77.044Z" />
            <path clip-path="url(#TextBounds)"
                d="M659.185 77.044C662.888 77.044 666.899 77.1726 671.219 77.4297C675.54 77.6869 679.757 78.0212 683.872 78.4326C687.986 78.8441 691.638 79.3584 694.826 79.9756L693.283 94.1706C688.346 94.0677 683.383 93.9906 678.394 93.9392C673.405 93.8877 668.545 93.862 663.813 93.862C659.802 93.7592 656.716 93.8106 654.556 94.0163C652.396 94.222 650.878 94.7106 650.004 95.4821C649.13 96.2536 648.693 97.6165 648.693 99.5709C648.693 101.834 649.464 103.351 651.007 104.123C652.55 104.894 655.121 105.743 658.722 106.668L678.626 111.452C685.003 113.097 689.735 115.54 692.821 118.78C695.906 122.021 697.449 126.881 697.449 133.361C697.449 139.739 696.267 144.625 693.901 148.019C691.535 151.414 687.78 153.754 682.637 155.04C677.494 156.325 670.859 156.968 662.733 156.968C659.545 156.968 654.813 156.814 648.538 156.505C642.264 156.197 635.372 155.425 627.863 154.191L629.406 139.996C631.257 140.099 633.623 140.176 636.503 140.227C639.384 140.279 642.521 140.304 645.915 140.304C649.31 140.304 652.704 140.304 656.099 140.304C661.345 140.304 665.356 140.176 668.134 139.919C670.911 139.662 672.814 139.07 673.842 138.144C674.871 137.219 675.385 135.83 675.385 133.978C675.385 131.715 674.511 130.173 672.762 129.35C671.014 128.527 668.236 127.652 664.431 126.727L645.144 121.943C640.309 120.606 636.555 118.909 633.88 116.852C631.206 114.795 629.329 112.274 628.249 109.291C627.169 106.308 626.629 102.76 626.629 98.6451C626.629 93.3991 627.683 89.2075 629.792 86.0702C631.9 82.9329 635.346 80.6442 640.129 79.2041C644.912 77.764 651.264 77.044 659.185 77.044Z" />
            <path clip-path="url(#TextBounds)"
                d="M765.184 77.044C779.585 77.044 786.786 84.0901 786.786 98.1822L786.786 155.271L763.796 155.271L763.796 105.28C763.796 101.885 763.204 99.5452 762.021 98.2594C760.838 96.9736 758.756 96.3307 755.773 96.3307C752.481 96.3307 749.086 96.9479 745.589 98.1822C742.092 99.4166 737.772 101.422 732.628 104.2L730.623 92.3191C736.28 87.3817 742.04 83.6015 747.904 80.9785C753.767 78.3555 759.527 77.044 765.184 77.044ZM734.943 47.2653L735.097 73.6495C735.097 77.6612 734.866 81.4671 734.403 85.0673C733.94 88.6675 733.4 91.7019 732.783 94.1706L734.943 96.1764L734.943 155.271L712.107 155.271L712.107 47.2653L734.943 47.2653Z" />
        </g>
    </g>
    <g id="Candy">
        <use fill="#000000" opacity="1" stroke="none" xlink:href="#Fill" />
        <clipPath id="ClipPath">
            <use xlink:href="#Fill-" />
            <use xlink:href="#Fill-_2" />
            <use xlink:href="#Fill-_3" />
            <use xlink:href="#Fill-_4" />
            <use xlink:href="#Fill-_5" />
            <use xlink:href="#Fill-_6" />
            <use xlink:href="#Fill-_7" />
            <use xlink:href="#Fill-_8" />
            <use xlink:href="#Fill-_9" />
        </clipPath>
        <g clip-path="url(#ClipPath)">
            <path d="M171.435 146.784C179.919 151.026 199.147 145.769 202.451 135.856" fill="none" opacity="1"
                stroke="#ef4823" stroke-linecap="butt" stroke-linejoin="round" stroke-width="4" />
            <path d="M170.793 138.428C179.276 142.669 198.504 137.413 201.808 127.5" fill="none" opacity="1"
                stroke="#ef4823" stroke-linecap="butt" stroke-linejoin="round" stroke-width="4" />
            <path d="M170.31 129.589C178.794 133.831 198.022 128.574 201.326 118.661" fill="none" opacity="1"
                stroke="#ef4823" stroke-linecap="butt" stroke-linejoin="round" stroke-width="4" />
            <path d="M169.668 120.429C178.151 124.671 197.379 119.414 200.683 109.501" fill="none" opacity="1"
                stroke="#ef4823" stroke-linecap="butt" stroke-linejoin="round" stroke-width="4" />
            <path d="M176.474 157.162C185.108 161.479 194.345 152.337 200.857 149.081" fill="none" opacity="1"
                stroke="#ef4823" stroke-linecap="butt" stroke-linejoin="round" stroke-width="4" />
            <path d="M173.4 111.714C179.41 115.72 195.488 103.204 201.741 101.119" fill="none" opacity="1"
                stroke="#ef4823" stroke-linecap="butt" stroke-linejoin="round" stroke-width="4" />
            <path d="M174.676 103.201C189.354 98.308 189.833 77.6567 200.995 74.8661" fill="none" opacity="1"
                stroke="#ef4823" stroke-linecap="butt" stroke-linejoin="round" stroke-width="4" />
            <path d="M174.046 75.9994C178.4 73.0964 200.07 60.2776 204.773 64.9804" fill="none" opacity="1"
                stroke="#ef4823" stroke-linecap="butt" stroke-linejoin="round" stroke-width="4" />
            <path d="M172.346 62.9026C172.346 47.9722 204.698 48.5494 207.859 64.3508" fill="none" opacity="1"
                stroke="#ef4823" stroke-linecap="butt" stroke-linejoin="round" stroke-width="4" />
            <path d="M192.128 43.0254C204.185 39.0065 216.205 55.8819 213.599 66.3054" fill="none" opacity="1"
                stroke="#ef4823" stroke-linecap="butt" stroke-linejoin="round" stroke-width="4" />
            <path d="M213.756 41.6884C219.868 44.7442 220.733 60.974 221.071 66.3841" fill="none" opacity="1"
                stroke="#ef4823" stroke-linecap="butt" stroke-linejoin="round" stroke-width="4" />
        </g>
    </g>
    <g id="Deer">
        <path
            d="M104.262 71.5457C107.37 80.6331 119.447 71.4266 120.942 68.3777C113.319 64.6409 109.12 61.6365 103.829 64.7153L100.436 67.7791M73.8468 56.446C64.7594 59.5544 64.6404 44.3691 66.1351 41.3201C73.7575 45.057 78.7046 46.5368 79.5115 52.605L79.1676 57.1636"
            fill="#6d4c41" fill-rule="nonzero" opacity="1" stroke="none" />
        <path
            d="M104.262 71.5457C107.37 80.6331 119.447 71.4266 120.942 68.3777C113.319 64.6409 109.553 68.467 104.262 71.5457M73.8468 56.446C64.7594 59.5544 64.6404 44.3691 66.1351 41.3201C73.7575 45.057 73.0399 50.3778 73.8468 56.446"
            fill="#4e342e" fill-rule="nonzero" opacity="1" stroke="none" />
        <path
            d="M94.2484 53.4007C80.833 46.8239 73.4433 53.4119 71.8739 56.6133C71.3507 57.6804 70.2297 59.9672 70.2297 59.9672L70.2297 59.9672C67.0279 68.041 63.6314 90.0118 72.6348 95.5601C72.9397 95.7096 73.0921 95.7843 73.397 95.9338C73.7019 96.0833 73.8543 96.158 74.1592 96.3075C84.2119 100.101 99.5742 83.8074 103.843 76.2567C103.843 76.2567 104.74 74.4273 105.487 72.9028C106.982 69.8539 107.664 59.9774 94.2484 53.4007Z"
            fill="#8d6e63" fill-rule="nonzero" opacity="1" stroke="none" />
        <path
            d="M82.3501 85.3851L76.2522 82.3956C73.2032 80.9009 68.6893 86.2515 68.6893 86.2515C67.8672 87.9284 67.2243 93.0968 73.3223 96.0862C79.4202 99.0757 83.112 95.402 83.9341 93.7251C83.9341 93.7251 85.3991 86.8798 82.3501 85.3851Z"
            fill="#bcaaa4" fill-rule="nonzero" opacity="1" stroke="none" />
        <path
            d="M96.6988 75.4015C95.8767 77.0785 93.8321 77.7779 92.1551 76.9558C90.4782 76.1337 89.7788 74.089 90.6009 72.4121C91.423 70.7351 93.4677 70.0357 95.1446 70.8578C96.8215 71.6799 97.5209 73.7246 96.6988 75.4015ZM81.454 67.9279C80.6319 69.6048 78.5872 70.3042 76.9103 69.4821C75.2334 68.66 74.5339 66.6154 75.356 64.9384C76.1781 63.2615 78.2228 62.5621 79.8997 63.3842C81.5767 64.2063 82.2761 66.251 81.454 67.9279Z"
            fill="#000000" fill-rule="nonzero" opacity="1" stroke="none" />
        <path
            d="M77.0591 88.4638L75.7677 88.398C75.5405 88.4757 70.9939 89.6503 68.4681 87.0884C68.1721 88.0779 68.1093 89.7489 68.6532 91.3392L68.6532 91.3392C70.7875 92.3855 73.5197 92.2122 75.3401 91.9701C75.3401 91.9701 77.0591 88.4638 77.0591 88.4638ZM83.408 94.4126C79.8359 93.985 77.9797 89.6715 77.902 89.4443L77.0591 88.4638L75.2654 92.1226L75.2654 92.1226C76.0366 93.6351 77.7254 95.9758 79.8597 97.0221L79.8597 97.0221C81.6772 96.4004 82.8071 95.2526 83.408 94.4126Z"
            fill="#6d4c41" fill-rule="nonzero" opacity="1" stroke="none" />
        <path
            d="M83.1273 87.6569C82.3799 89.1814 77.8362 90.7356 76.3117 89.9883C74.7872 89.2409 73.233 84.6972 73.9804 83.1727C75.2509 80.5811 77.4569 81.0953 80.0485 82.3659C82.6402 83.6364 84.3978 85.0653 83.1273 87.6569Z"
            fill="#3e2723" fill-rule="nonzero" opacity="1" stroke="none" />
        <path
            d="M102.633 57.5111C102.023 57.2122 101.718 57.0627 101.718 57.0627L86.626 49.6638C80.833 46.8239 77.2341 42.9796 76.0565 38.0533C73.9404 29.6415 79.4977 21.777 79.7219 21.3196C80.248 20.6321 81.3092 20.396 82.1492 20.9969C82.8367 21.523 83.0728 22.5842 82.5466 23.2717C82.5466 23.2717 77.5902 30.2962 79.3895 37.04C80.331 40.9051 83.3171 44.0709 88.1955 46.4624L103.44 53.936C103.593 54.0108 109.314 57.3828 115.221 55.3623C119.537 53.8858 122.924 50.0627 125.382 43.893C125.83 42.9783 126.739 42.6674 127.576 42.8887C128.491 43.3371 128.801 44.2458 128.58 45.0828C125.674 52.1672 121.534 56.7555 116.384 58.3905C110.327 60.7159 104.92 58.6322 102.633 57.5111Z"
            fill="#4e342e" fill-rule="nonzero" opacity="1" stroke="none" />
        <path
            d="M100.499 56.4648L88.1505 50.4112C84.6442 48.6923 82.3456 46.0527 81.6372 42.8691C79.9127 35.9729 85.7001 28.4103 85.8496 28.1054C86.3757 27.4179 87.4369 27.1818 88.2769 27.7827C88.9644 28.3088 89.2005 29.37 88.5996 30.2099C88.5996 30.2099 83.715 36.7024 84.8955 42.0083C85.4455 44.3579 87.0536 46.0917 89.6452 47.3622L101.689 53.2664C102.373 53.4129 106.558 54.5191 110.187 52.5164C112.985 51.0518 114.859 47.9998 116.04 43.6625C116.262 42.8255 117.167 42.135 118.157 42.431C118.994 42.6522 119.684 43.558 119.388 44.5474C118.139 49.7965 115.511 53.6136 111.882 55.6163C106.513 58.4678 100.804 56.6143 100.499 56.4648L100.499 56.4648Z"
            fill="#4e342e" fill-rule="nonzero" opacity="1" stroke="none" />
        <path
            d="M97.2974 54.8954C96.6876 54.5964 96.302 53.8401 96.4485 53.1556C96.5173 52.2439 97.4231 51.5534 98.3348 51.6222C98.3348 51.6222 101.907 52.0498 103.865 49.9843C105.297 48.6063 105.733 46.1731 105.327 42.7594C105.243 41.7729 105.844 40.933 106.831 40.8493C107.817 40.7656 108.657 41.3665 108.741 42.3529C109.383 46.8279 108.498 50.1758 106.313 52.319C102.998 55.61 98.0567 54.8894 97.8295 54.9671C97.6023 55.0449 97.4499 54.9701 97.2974 54.8954ZM91.1995 51.9059C91.047 51.8312 90.8946 51.7565 90.8169 51.5293C90.6644 51.4545 87.1432 47.8374 87.7143 43.2011C88.1449 40.0086 90.1747 37.4111 94.1056 35.1783C94.9366 34.6402 95.9261 34.9362 96.4641 35.7672C97.0021 36.5982 96.7062 37.5877 95.8751 38.1257C93.0024 39.7428 91.4988 41.6528 91.0593 43.7064C90.7782 46.594 93.1515 49.0812 93.1515 49.0812C93.7643 49.7597 93.848 50.7462 93.0947 51.5114C92.6433 52.0465 91.8093 52.2049 91.1995 51.9059Z"
            fill="#4e342e" fill-rule="nonzero" opacity="1" stroke="none" />
    </g>
    <g id="Слой-1">
        <g opacity="1">
            <path
                d="M764.738 33.8392C764.751 33.8446 764.757 33.8309 764.738 33.8392C764.762 33.8172 764.787 33.7952 764.797 33.7678C764.787 33.7952 764.762 33.8172 764.738 33.8392ZM764.626 33.9218C764.664 33.9052 764.708 33.8749 764.751 33.8446C764.68 33.8641 764.637 33.8944 764.626 33.9218ZM750.235 61.6962C750.415 61.0386 750.396 60.445 750.329 59.7696C750.238 58.8781 750.214 58.0136 750.421 57.1289C750.598 56.4386 751.029 55.5473 750.834 54.8369C750.591 53.9652 749.596 53.4776 748.823 53.1886C746.238 52.2325 743.436 52.1093 740.726 51.753C739.614 51.5997 738.516 51.4518 737.488 50.9671C735.563 50.0653 733.458 49.821 731.415 49.3795C729.136 48.8925 727.025 47.9807 724.905 47.0498C723.893 46.6032 722.873 46.1376 721.808 45.8281C720.917 45.5561 719.991 45.3335 719.101 45.0614C717.292 44.5066 715.385 43.8017 714.375 42.1048C713.887 41.2946 713.511 40.0378 712.68 39.5357C711.835 39.0282 710.941 38.644 710.023 38.2818C709.173 37.9466 708.497 37.2522 707.815 36.6509C706.996 35.9161 706.169 35.1622 705.285 34.5126C704.626 34.0151 703.698 33.3165 702.912 33.2601C702.619 33.2396 702.431 33.2761 702.325 33.4243C702.028 33.8143 701.924 34.2799 701.833 34.7509C701.751 35.2411 701.347 35.3826 700.969 35.2968C700.925 35.4065 700.863 35.5244 700.765 35.6125C700.614 36.6775 700.192 37.6672 699.751 38.6653C699.459 39.3261 699.18 39.9923 699.017 40.688C698.864 41.3563 698.982 41.9413 699.02 42.6059C699.094 43.7437 698.919 44.9101 698.325 45.8952C697.91 46.5867 696.66 47.9471 697.22 48.8171C697.474 49.2181 698.076 49.3766 698.461 49.6073C698.963 49.9004 699.451 50.2674 699.883 50.6593C700.82 51.5357 701.523 52.6048 702.387 53.5473C704.012 55.3288 706.377 55.5171 708.35 56.7387C709.19 57.26 709.978 57.7924 710.711 58.4619C711.379 59.0579 712.006 59.7169 712.704 60.2772C714.396 61.6096 716.527 62.2286 718.431 63.1852C719.489 63.7136 720.551 64.2748 721.599 64.8306C722.515 65.3187 723.474 65.6971 724.38 66.2125C726.223 67.2406 728.117 68.3832 730.214 68.7671C732.076 69.1055 733.973 68.634 735.858 68.7124C737.558 68.7808 739.185 69.2326 740.815 69.6378C742.045 69.9328 743.172 69.9657 744.341 69.4128C745.159 69.0231 745.959 68.5623 746.761 68.1344C747.02 67.999 747.299 67.8554 747.583 67.6981C747.439 67.3404 747.519 66.8968 747.87 66.6871C747.805 66.2497 748.06 65.7642 748.501 65.7319C748.883 64.964 749.166 64.1254 749.515 63.3604C749.723 62.793 750.068 62.2797 750.235 61.6962Z"
                fill="#d6e5e5" fill-rule="nonzero" opacity="1" stroke="none" />
            <path
                d="M747.907 50.9741C747.347 50.7059 747.435 50.1228 747.794 49.7735C746.818 47.6305 746.246 45.2666 746.007 42.9395C745.718 40.1802 745.764 37.3318 746.607 34.6711C747.704 31.2075 749.48 26.2221 753.294 24.9862C753.252 24.8113 753.216 24.6226 753.179 24.434C753.028 23.6933 752.975 22.9439 753.311 22.2528C753.609 21.6577 754.116 21.2557 754.686 20.9739C754.636 20.2573 754.756 19.5126 755.191 18.9715C753.344 17.7519 750.986 17.2654 748.866 16.857C746.451 16.3954 744.046 15.9063 741.586 15.7596C736.348 15.4675 731.046 16.2593 726.083 17.9604C723.772 18.7596 721.583 19.7332 719.534 21.0318C717.617 22.2395 715.73 23.4907 713.881 24.8047C711.863 26.2263 709.843 27.6943 707.999 29.3585C707.361 29.9307 706.664 30.5743 706.196 31.1976C706.09 31.3459 705.984 31.4942 705.892 31.6478C705.876 31.6889 705.846 31.7247 705.83 31.7658C705.819 31.7932 705.803 31.8343 705.797 31.848C705.787 31.8754 705.776 31.9028 705.77 31.9165C705.958 32.244 705.886 32.548 705.692 32.7569C706.719 33.4468 707.637 34.3316 708.492 35.0963C709.115 35.6432 709.679 36.2615 710.371 36.6768C711.208 37.1652 712.221 37.4066 713.077 37.8867C713.955 38.3914 714.483 38.9798 714.958 39.8639C715.447 40.7535 715.832 41.7448 716.721 42.3014C717.519 42.8064 718.388 43.1333 719.293 43.4107C721.257 44.0113 723.169 44.5438 725.061 45.3691C727.181 46.3001 729.317 47.2692 731.595 47.7561C733.611 48.1869 735.716 48.4311 737.617 49.2756C739.95 50.3067 742.554 50.2886 745.035 50.6651C746.007 50.8109 747.165 50.9667 748.269 51.2596C748.2 51.1533 748.066 51.0527 747.907 50.9741Z"
                fill="#ef4823" fill-rule="nonzero" opacity="1" stroke="none" />
            <path
                d="M767.561 24.8323C767.167 23.5839 766.158 22.6476 765.425 21.6142C764.701 20.5999 764.198 19.5462 764.02 18.3514C762.292 18.5568 760.664 19.2295 759.059 19.9268C758.887 20.0015 758.723 20.0159 758.575 19.9893C758.295 20.3381 757.74 20.4995 757.319 20.0802C757.253 20.0066 757.149 19.9497 757.053 19.9118C756.993 19.9833 756.912 20.0302 756.835 20.0634C756.701 20.1215 756.507 20.1717 756.368 20.1641C756.368 20.1641 756.368 20.1641 756.354 20.1587L756.335 20.167C756.191 20.4906 756.287 20.9716 756.354 21.2832C756.429 21.6139 756.27 22.0579 755.937 22.1799C755.284 22.4293 754.553 22.7584 754.658 23.576C754.712 23.9615 754.804 24.3304 754.89 24.713C755.479 24.8661 755.519 25.6895 755.072 26.0993C755.094 26.7257 755.024 27.3472 754.865 27.9498C754.736 28.4375 754.451 28.9587 754.429 29.4568C754.405 30.0807 754.977 30.7975 755.39 31.1977C755.997 31.7857 756.795 32.1321 757.606 32.3251C758.477 32.5261 759.314 32.5713 760.169 32.2908C760.858 32.0714 761.679 31.7144 762.416 31.8148C763.005 31.8886 763.498 32.1626 764.035 32.3269C764.227 32.2438 764.126 32.2991 764.063 32.3377L764.063 32.3377C764.082 32.3294 764.101 32.3211 764.126 32.2991C764.295 32.1915 764.442 32.0595 764.594 31.9137C765.553 30.9296 766.271 29.6293 766.87 28.3925C767.453 27.2761 767.964 26.0999 767.561 24.8323Z"
                fill="#d6e5e5" fill-rule="nonzero" opacity="1" stroke="none" />
            <path
                d="M749.973 66.2966C750.081 66.0225 750.183 65.7621 750.278 65.5619C750.538 64.9834 750.77 64.394 751.03 63.8154C751.285 63.2506 751.6 62.773 751.791 62.1674C752.265 60.6439 751.648 59.1175 751.982 57.5864C752.309 56.1156 752.872 54.7695 751.924 53.3979C751.378 52.6126 750.563 52.0693 749.636 51.688C749.399 51.7685 749.128 51.7726 748.9 51.667C748.673 51.5614 748.513 51.4035 748.335 51.2538C747.231 50.961 746.073 50.8051 745.101 50.6594C742.606 50.2774 740.002 50.2955 737.682 49.2698C735.782 48.4254 733.671 48.1948 731.661 47.7504C729.382 47.2634 727.26 46.2997 725.127 45.3633C723.235 44.538 721.323 44.0055 719.358 43.4049C718.454 43.1275 717.585 42.8006 716.786 42.2956C715.897 41.739 715.507 40.7614 715.024 39.8581C714.549 38.974 714.021 38.3856 713.143 37.8809C712.287 37.4008 711.273 37.1594 710.436 36.671C709.731 36.2503 709.162 35.6457 708.557 35.0905C707.703 34.3258 706.785 33.4411 705.758 32.7511C705.426 33.1111 704.726 33.1993 704.392 32.64C704.246 32.4082 704.198 32.1676 704.203 31.9159C703.846 31.7754 703.46 31.6705 703.085 31.6176C701.53 31.3844 700.639 32.6801 700.33 33.9839C699.886 33.8246 699.299 34.0682 699.201 34.6789C699.188 34.7528 699.183 34.8458 699.197 34.9306C699.092 37.0433 697.623 38.8397 697.305 40.9316C697.175 41.7831 697.448 42.6983 697.386 43.5769C697.325 44.5348 696.782 45.2707 696.287 46.0419C695.334 47.5349 695.061 49.3912 696.719 50.4885C697.449 50.9665 698.192 51.2912 698.841 51.8955C699.569 52.5787 700.14 53.4214 700.808 54.176C701.463 54.9252 702.104 55.5897 702.957 56.1164C703.712 56.5724 704.578 56.8664 705.411 57.1633C707.228 57.8167 708.732 58.8217 710.145 60.1391C710.802 60.7624 711.464 61.3721 712.186 61.9103C713.051 62.5683 714.038 62.9575 715.028 63.3795C716.051 63.7986 717.046 64.2863 718.036 64.7877C719.081 65.3107 720.086 65.9761 721.163 66.4169C724.085 67.6011 726.593 69.6355 729.729 70.318C731.044 70.5989 732.398 70.4993 733.719 70.4027C735.204 70.2915 736.61 70.3394 738.078 70.6333C740.017 71.0179 741.882 71.8324 743.884 71.2919C745.092 70.9605 746.172 70.2302 747.28 69.6695C748.47 69.0618 749.632 68.364 750.195 67.0972C750.309 66.8094 750.19 66.509 749.973 66.2966ZM749.474 63.3442C749.125 64.1092 748.842 64.9478 748.459 65.7157C748.014 65.7617 747.764 66.2335 747.829 66.6709C747.477 66.8805 747.397 67.3242 747.541 67.6819C747.271 67.8446 746.974 67.9965 746.72 68.1181C745.918 68.5461 745.124 68.9932 744.299 69.3966C743.126 69.9632 742.012 69.9357 740.774 69.6216C739.144 69.2164 737.517 68.7646 735.817 68.6962C733.945 68.6232 732.049 69.0947 730.173 68.7509C728.075 68.367 726.174 67.2052 724.338 66.1963C723.428 65.6946 722.474 65.3025 721.558 64.8144C720.51 64.2586 719.462 63.7028 718.389 63.169C716.486 62.2124 714.354 61.5934 712.663 60.261C711.965 59.7007 711.333 59.0554 710.67 58.4457C709.937 57.7762 709.143 57.2575 708.309 56.7225C706.341 55.4871 703.971 55.3126 702.345 53.5311C701.482 52.5886 700.779 51.5195 699.842 50.643C699.416 50.2374 698.922 49.8841 698.419 49.5911C698.022 49.355 697.433 49.2019 697.179 48.8009C696.619 47.9308 697.869 46.5705 698.284 45.879C698.884 44.8802 699.039 43.7221 698.979 42.5897C698.94 41.925 698.823 41.3401 698.975 40.6718C699.139 39.976 699.437 39.3015 699.71 38.6491C700.137 37.6456 700.559 36.6559 700.724 35.5962C700.808 35.5028 700.884 35.3903 700.927 35.2806C701.3 35.3801 701.704 35.2386 701.792 34.7347C701.883 34.2637 701.987 33.7981 702.284 33.4081C702.39 33.2599 702.578 33.2234 702.871 33.2438C703.662 33.2865 704.585 33.9989 705.244 34.4964C706.128 35.146 706.955 35.8999 707.774 36.6347C708.455 37.236 709.118 37.925 709.982 38.2656C710.9 38.6277 711.794 39.0119 712.639 39.5195C713.484 40.027 713.859 41.2838 714.334 42.0886C715.344 43.7855 717.251 44.4904 719.06 45.0452C719.95 45.3173 720.871 45.5536 721.767 45.8119C722.827 46.1351 723.847 46.6007 724.864 47.0336C726.984 47.9645 729.1 48.8626 731.373 49.3632C733.43 49.8102 735.535 50.0545 737.447 50.9508C738.475 51.4356 739.573 51.5835 740.685 51.7368C743.389 52.1068 746.192 52.23 748.782 53.1723C749.568 53.4668 750.55 53.949 750.793 54.8206C750.988 55.531 750.551 56.436 750.38 57.1127C750.159 57.992 750.196 58.8619 750.288 59.7533C750.355 60.4288 750.374 61.0224 750.194 61.6799C750.068 62.2797 749.723 62.793 749.474 63.3442Z"
                fill="#010101" fill-rule="nonzero" opacity="1" stroke="none" />
            <path
                d="M769.341 25.6609C769.246 22.4083 765.616 20.7706 765.586 17.5121C765.576 17.0963 765.259 16.6546 764.811 16.6677C762.51 16.7582 760.432 17.5699 758.343 18.4884C758.248 18.5299 758.166 18.5768 758.111 18.6345C757.76 18.4009 757.379 18.2823 756.974 18.2652C756.581 17.8567 756.005 17.5503 755.538 17.2871C753.791 16.297 751.797 15.8114 749.849 15.4077C745.908 14.5977 742.009 13.9627 737.974 14.1135C733.827 14.2677 729.697 15.0619 725.772 16.3805C723.395 17.1855 721.113 18.1541 719.002 19.4913C715.679 21.5703 712.429 23.7885 709.327 26.192C707.958 27.252 706.568 28.3668 705.42 29.672C704.914 30.2326 704.201 31.076 704.189 31.9105C704.737 32.1267 705.258 32.4115 705.744 32.7457C705.937 32.5368 706.01 32.2328 705.822 31.9053C705.828 31.8916 705.838 31.8642 705.849 31.8368C705.855 31.8231 705.871 31.782 705.882 31.7546C705.898 31.7135 705.928 31.6777 705.944 31.6366C706.036 31.483 706.142 31.3347 706.248 31.1865C706.716 30.5631 707.413 29.9195 708.051 29.3473C709.889 27.6969 711.91 26.2288 713.933 24.7935C715.782 23.4795 717.669 22.2283 719.586 21.0206C721.654 19.7137 723.824 18.7484 726.135 17.9492C731.098 16.2481 736.4 15.4563 741.638 15.7484C744.09 15.876 746.503 16.3842 748.918 16.8458C751.038 17.2542 753.401 17.727 755.243 18.9603C754.813 19.4877 754.688 20.2461 754.738 20.9627C754.168 21.2446 753.647 21.6411 753.363 22.2416C753.027 22.9327 753.08 23.6821 753.231 24.4228C753.267 24.6114 753.309 24.7864 753.346 24.975C749.532 26.2109 747.762 31.1826 746.659 34.6599C745.816 37.3206 745.769 40.169 746.059 42.9283C746.298 45.2554 746.87 47.6193 747.846 49.7623C747.492 50.0979 747.413 50.7002 747.959 50.9629C748.118 51.0415 748.252 51.1421 748.381 51.2564C748.828 51.3691 749.277 51.5147 749.683 51.6905C750.106 51.5408 750.386 51.1126 750.105 50.6215C748.75 48.3134 748.042 45.6902 747.69 43.049C747.358 40.5581 747.383 37.8438 748.121 35.4107C748.711 33.4735 749.421 31.5521 750.431 29.7962C751.136 28.5698 752.153 27.1969 753.523 26.613C753.486 27.3108 753.251 27.9467 753.052 28.6125C752.615 30.0401 753.319 31.2679 754.271 32.3084C755.434 33.575 757.33 34.0693 758.983 34.1352C759.858 34.1638 760.645 33.8563 761.47 33.6115C762.248 33.3642 762.528 33.4586 763.254 33.7451C763.624 33.8911 764.249 34.1535 764.659 33.9189C764.683 33.8969 764.713 33.8612 764.784 33.8417C764.809 33.8197 764.833 33.7977 764.844 33.7703C764.819 33.7923 764.814 33.806 764.79 33.828C764.809 33.8197 764.833 33.7977 764.866 33.7948C764.962 33.7533 765.049 33.6927 765.131 33.6458C765.406 33.4693 765.632 33.2576 765.864 33.0321C766.871 32.004 767.604 30.709 768.246 29.4419C768.79 28.2628 769.375 27.0205 769.341 25.6609ZM766.911 28.4087C766.312 29.6455 765.599 30.9321 764.635 31.93C764.497 32.0811 764.349 32.2132 764.167 32.3153C764.142 32.3373 764.123 32.3456 764.104 32.3539L764.104 32.3539C764.167 32.3153 764.254 32.2547 764.077 32.3431C763.526 32.1734 763.032 31.8994 762.457 31.8311C761.715 31.7444 760.899 32.0876 760.21 32.3071C759.355 32.5875 758.518 32.5423 757.647 32.3413C756.831 32.162 756.033 31.8156 755.431 31.2139C755.005 30.8083 754.446 30.0969 754.47 29.473C754.492 28.9749 754.783 28.44 754.906 27.9661C755.065 27.3634 755.136 26.742 755.113 26.1155C755.555 25.7194 755.521 24.8824 754.932 24.7293C754.845 24.3466 754.753 23.9777 754.699 23.5922C754.58 22.7692 755.325 22.4455 755.978 22.1961C756.317 22.0604 756.471 21.6301 756.395 21.2994C756.323 21.0016 756.227 20.5205 756.376 20.1832L756.395 20.1749C756.395 20.1749 756.395 20.1749 756.409 20.1804C756.548 20.1879 756.742 20.1377 756.876 20.0796C756.953 20.0464 757.026 19.9804 757.094 19.9281C757.19 19.9659 757.289 20.0366 757.361 20.0964C757.767 20.5103 758.336 20.3543 758.616 20.0055C758.764 20.0322 758.928 20.0177 759.1 19.943C760.705 19.2457 762.319 18.5676 764.061 18.3677C764.239 19.5624 764.747 20.6024 765.467 21.6304C766.213 22.6692 767.203 23.6138 767.603 24.8485C767.964 26.0999 767.453 27.2761 766.911 28.4087Z"
                fill="#010101" fill-rule="nonzero" opacity="1" stroke="none" />
            <path
                d="M704.17 31.9188C704.166 32.1705 704.213 32.4111 704.359 32.6429C704.693 33.2022 705.388 33.1277 705.725 32.754C705.239 32.4198 704.718 32.135 704.17 31.9188ZM748.329 51.2675C748.508 51.4172 748.681 51.5805 748.895 51.6807C749.136 51.7917 749.407 51.7876 749.631 51.7017C749.212 51.5205 748.776 51.3803 748.329 51.2675ZM764.738 33.8392C764.694 33.8695 764.664 33.9052 764.612 33.9164C764.577 33.9658 764.642 33.96 764.738 33.8392C764.757 33.8309 764.751 33.8446 764.738 33.8392Z"
                fill="#010101" fill-rule="nonzero" opacity="1" stroke="none" />
        </g>
    </g>
    <g id="Слой-2" />
</svg>